<?xml version="1.0" standalone="no"?>
<!DOCTYPE svg PUBLIC "-//W3C//DTD SVG 20010904//EN"
 "http://www.w3.org/TR/2001/REC-SVG-20010904/DTD/svg10.dtd">
<svg version="1.0" xmlns="http://www.w3.org/2000/svg"
 width="354.000000pt" height="216.000000pt" viewBox="0 0 354.000000 216.000000"
 preserveAspectRatio="xMidYMid meet">

<g transform="translate(0.000000,216.000000) scale(0.100000,-0.100000)"
fill="#000000" stroke="none">
<path d="M863 2003 c-7 -2 -13 -17 -13 -33 0 -33 12 -45 66 -59 55 -15 104
-49 127 -89 23 -39 36 -172 37 -369 l0 -132 43 -11 c23 -6 81 -22 129 -35 47
-13 89 -21 92 -17 3 3 6 33 6 66 0 112 13 286 21 286 5 0 27 -33 50 -72 23
-40 82 -140 132 -223 49 -82 103 -174 119 -203 15 -29 61 -105 102 -170 40
-64 80 -131 89 -148 9 -17 55 -94 103 -170 49 -76 104 -168 125 -204 77 -137
138 -236 164 -267 l27 -33 201 0 c111 0 212 3 224 6 49 13 31 94 -22 94 -12 0
-44 7 -71 15 -89 26 -136 101 -150 241 -4 36 -12 64 -18 64 -23 0 -137 60
-190 100 -94 71 -149 148 -208 294 -29 72 -79 176 -112 231 -100 169 -285 483
-377 635 -48 80 -94 160 -103 178 l-17 32 -282 -1 c-155 0 -288 -3 -294 -6z"/>
<path d="M1902 1998 c-7 -7 -12 -22 -12 -35 0 -19 14 -30 85 -62 62 -29 89
-48 104 -72 25 -40 44 -124 85 -372 19 -109 35 -200 38 -202 2 -2 37 6 78 19
41 13 96 27 121 31 l45 7 11 229 c10 208 13 233 34 276 25 51 40 61 130 93 59
22 72 39 58 78 l-8 22 -379 0 c-281 0 -381 -3 -390 -12z"/>
<path d="M408 1305 c-101 -17 -166 -39 -261 -88 -88 -45 -112 -76 -101 -132
15 -80 111 -181 221 -232 29 -13 90 -29 140 -35 48 -6 89 -12 91 -14 2 -1 -4
-17 -13 -35 -39 -74 0 -170 84 -206 53 -23 189 -33 298 -22 191 19 322 74 443
186 94 87 141 172 167 298 19 90 13 132 -20 144 -128 49 -448 123 -609 140
-128 14 -344 12 -440 -4z m600 -103 c84 -16 154 -31 157 -33 2 -3 -71 -18
-163 -33 -220 -37 -475 -46 -639 -22 -114 17 -194 38 -177 48 19 11 162 51
229 64 119 23 407 11 593 -24z m404 -138 c-7 -80 -92 -230 -166 -291 -43 -35
-145 -97 -151 -92 -2 3 14 61 36 129 22 69 43 155 46 192 l6 68 -46 -14 c-67
-20 -186 -92 -320 -195 -168 -128 -277 -186 -277 -148 0 26 77 132 137 188 76
73 157 113 287 144 121 29 401 66 441 60 6 -1 9 -20 7 -41z m-1218 6 c95 -32
164 -42 335 -49 l164 -6 -72 -62 -72 -63 -67 0 c-154 1 -282 63 -333 163 -11
20 -18 37 -16 37 2 0 29 -9 61 -20z m853 -280 l-42 -145 -40 -14 c-50 -18
-318 -22 -335 -5 -8 8 3 19 42 41 29 17 89 57 133 88 162 117 280 196 282 188
1 -4 -16 -73 -40 -153z"/>
<path d="M2648 1305 c-137 -19 -323 -61 -425 -96 -48 -16 -97 -29 -110 -29
-13 0 -33 -10 -44 -21 -19 -19 -21 -28 -15 -80 27 -240 181 -415 446 -510 58
-21 83 -23 245 -23 203 -1 237 6 284 59 45 52 50 110 15 190 -2 6 31 15 82 22
192 26 364 160 366 285 0 36 -4 46 -33 71 -49 41 -162 94 -254 118 -103 28
-407 36 -557 14z m549 -94 c46 -11 100 -28 120 -36 47 -20 38 -26 -72 -51 -67
-16 -118 -19 -315 -18 -212 1 -252 4 -404 31 l-168 29 138 28 c215 42 246 45
439 42 143 -3 197 -8 262 -25z m-857 -126 c107 -14 227 -35 267 -45 107 -29
197 -83 278 -165 69 -70 136 -176 115 -183 -23 -8 -181 92 -305 193 -55 44
-208 139 -261 161 -18 8 -43 14 -54 14 -32 0 -26 -78 16 -217 20 -65 39 -129
42 -142 l5 -24 -54 29 c-86 47 -162 124 -208 213 -50 97 -72 191 -43 191 3 0
94 -11 202 -25z m1055 -32 c-64 -102 -193 -163 -343 -163 -63 0 -64 0 -125 55
-33 30 -64 55 -69 55 -4 0 -8 5 -8 10 0 6 49 10 128 10 141 0 288 19 372 48
30 11 57 18 59 16 2 -2 -4 -16 -14 -31z m-795 -202 c91 -68 216 -153 290 -198
l34 -22 -27 -10 c-38 -15 -206 -13 -287 2 -54 10 -67 17 -77 38 -12 25 -83
265 -83 281 0 13 48 -16 150 -91z"/>
<path d="M1275 635 c-33 -25 -94 -58 -135 -74 l-75 -29 -12 -91 c-9 -67 -19
-101 -39 -130 -26 -39 -92 -81 -127 -81 -10 0 -33 -7 -52 -14 -29 -12 -35 -20
-35 -45 0 -20 7 -34 19 -41 22 -11 699 -13 741 -1 31 8 38 45 15 71 -9 10 -39
24 -67 31 -36 8 -62 23 -89 50 -54 54 -72 122 -73 276 -1 68 -3 123 -6 123 -3
0 -32 -20 -65 -45z"/>
</g>
</svg>
